<svg width="215" height="215" viewBox="0 0 215 215" fill="none" xmlns="http://www.w3.org/2000/svg">
<rect width="215" height="215" fill="#00AB37"/>
<path d="M67.9205 174.273V183H66.8977L62.1421 176.148H62.0568V183H61V174.273H62.0227L66.7955 181.142H66.8807V174.273H67.9205ZM74.0238 180.324V176.455H75.0295V183H74.0238V181.892H73.9556C73.8022 182.224 73.5636 182.507 73.2397 182.74C72.9159 182.97 72.5068 183.085 72.0124 183.085C71.6034 183.085 71.2397 182.996 70.9215 182.817C70.6034 182.635 70.3534 182.362 70.1715 181.999C69.9897 181.632 69.8988 181.17 69.8988 180.614V176.455H70.9045V180.545C70.9045 181.023 71.038 181.403 71.3051 181.688C71.5749 181.972 71.9187 182.114 72.3363 182.114C72.5863 182.114 72.8406 182.05 73.0991 181.922C73.3605 181.794 73.5792 181.598 73.7553 181.334C73.9343 181.07 74.0238 180.733 74.0238 180.324ZM72.0124 175.568L73.0522 173.591H74.2284L72.8988 175.568H72.0124ZM76.8715 183V176.455H77.8431V177.477H77.9283C78.0646 177.128 78.2848 176.857 78.5888 176.663C78.8928 176.467 79.2578 176.369 79.684 176.369C80.1158 176.369 80.4752 176.467 80.7621 176.663C81.0519 176.857 81.2777 177.128 81.4396 177.477H81.5078C81.6754 177.139 81.9269 176.871 82.2621 176.672C82.5973 176.47 82.9993 176.369 83.4681 176.369C84.0533 176.369 84.532 176.553 84.9041 176.919C85.2763 177.283 85.4624 177.849 85.4624 178.619V183H84.4567V178.619C84.4567 178.136 84.3246 177.791 84.0604 177.584C83.7962 177.376 83.4851 177.273 83.1271 177.273C82.6669 177.273 82.3104 177.412 82.0575 177.69C81.8047 177.966 81.6783 178.315 81.6783 178.739V183H80.6556V178.517C80.6556 178.145 80.5348 177.845 80.2933 177.618C80.0519 177.388 79.7408 177.273 79.3601 177.273C79.0987 177.273 78.8544 177.342 78.6271 177.482C78.4027 177.621 78.2209 177.814 78.0817 178.061C77.9453 178.305 77.8771 178.588 77.8771 178.909V183H76.8715ZM90.0455 183.136C89.4148 183.136 88.8708 182.997 88.4134 182.719C87.9588 182.438 87.608 182.045 87.3608 181.543C87.1165 181.037 86.9943 180.449 86.9943 179.778C86.9943 179.108 87.1165 178.517 87.3608 178.006C87.608 177.491 87.9517 177.091 88.3921 176.804C88.8352 176.514 89.3523 176.369 89.9432 176.369C90.2841 176.369 90.6208 176.426 90.9531 176.54C91.2855 176.653 91.5881 176.838 91.8608 177.094C92.1335 177.347 92.3509 177.682 92.5128 178.099C92.6747 178.517 92.7557 179.031 92.7557 179.642V180.068H87.7102V179.199H91.733C91.733 178.83 91.6591 178.5 91.5114 178.21C91.3665 177.92 91.1591 177.692 90.8892 177.524C90.6222 177.357 90.3068 177.273 89.9432 177.273C89.5426 177.273 89.196 177.372 88.9034 177.571C88.6137 177.767 88.3906 178.023 88.2344 178.338C88.0781 178.653 88 178.991 88 179.352V179.932C88 180.426 88.0852 180.845 88.2557 181.189C88.429 181.53 88.6691 181.79 88.9759 181.969C89.2827 182.145 89.6392 182.233 90.0455 182.233C90.3097 182.233 90.5483 182.196 90.7614 182.122C90.9773 182.045 91.1634 181.932 91.3196 181.781C91.4759 181.628 91.5966 181.437 91.6818 181.21L92.6534 181.483C92.5512 181.812 92.3793 182.102 92.1378 182.352C91.8963 182.599 91.598 182.793 91.2429 182.932C90.8878 183.068 90.4887 183.136 90.0455 183.136ZM94.2855 183V176.455H95.2571V177.443H95.3253C95.4446 177.119 95.6605 176.857 95.973 176.655C96.2855 176.453 96.6378 176.352 97.0298 176.352C97.1037 176.352 97.196 176.354 97.3068 176.357C97.4176 176.359 97.5014 176.364 97.5583 176.369V177.392C97.5242 177.384 97.446 177.371 97.3239 177.354C97.2046 177.334 97.0781 177.324 96.9446 177.324C96.6264 177.324 96.3423 177.391 96.0923 177.524C95.8452 177.655 95.6492 177.837 95.5043 178.07C95.3622 178.3 95.2912 178.562 95.2912 178.858V183H94.2855ZM101.21 183.136C100.619 183.136 100.101 182.996 99.6548 182.714C99.2117 182.433 98.8651 182.04 98.6151 181.534C98.3679 181.028 98.2443 180.437 98.2443 179.761C98.2443 179.08 98.3679 178.484 98.6151 177.976C98.8651 177.467 99.2117 177.072 99.6548 176.791C100.101 176.51 100.619 176.369 101.21 176.369C101.801 176.369 102.318 176.51 102.761 176.791C103.207 177.072 103.554 177.467 103.801 177.976C104.051 178.484 104.176 179.08 104.176 179.761C104.176 180.437 104.051 181.028 103.801 181.534C103.554 182.04 103.207 182.433 102.761 182.714C102.318 182.996 101.801 183.136 101.21 183.136ZM101.21 182.233C101.659 182.233 102.028 182.118 102.318 181.888C102.608 181.658 102.823 181.355 102.962 180.98C103.101 180.605 103.171 180.199 103.171 179.761C103.171 179.324 103.101 178.916 102.962 178.538C102.823 178.161 102.608 177.855 102.318 177.622C102.028 177.389 101.659 177.273 101.21 177.273C100.761 177.273 100.392 177.389 100.102 177.622C99.8125 177.855 99.598 178.161 99.4588 178.538C99.3196 178.916 99.25 179.324 99.25 179.761C99.25 180.199 99.3196 180.605 99.4588 180.98C99.598 181.355 99.8125 181.658 100.102 181.888C100.392 182.118 100.761 182.233 101.21 182.233ZM111.558 183.136C111.012 183.136 110.531 182.999 110.113 182.723C109.696 182.445 109.369 182.053 109.133 181.547C108.897 181.038 108.78 180.438 108.78 179.744C108.78 179.057 108.897 178.46 109.133 177.955C109.369 177.449 109.697 177.058 110.118 176.783C110.538 176.507 111.024 176.369 111.575 176.369C112.001 176.369 112.338 176.44 112.585 176.582C112.835 176.722 113.025 176.881 113.156 177.06C113.289 177.236 113.393 177.381 113.467 177.494H113.552V174.273H114.558V183H113.586V181.994H113.467C113.393 182.114 113.288 182.264 113.152 182.446C113.015 182.625 112.821 182.786 112.568 182.928C112.315 183.067 111.978 183.136 111.558 183.136ZM111.694 182.233C112.098 182.233 112.439 182.128 112.717 181.918C112.995 181.705 113.207 181.411 113.352 181.036C113.497 180.658 113.569 180.222 113.569 179.727C113.569 179.239 113.498 178.811 113.356 178.445C113.214 178.075 113.004 177.788 112.726 177.584C112.447 177.376 112.103 177.273 111.694 177.273C111.268 177.273 110.913 177.382 110.629 177.601C110.348 177.817 110.136 178.111 109.994 178.483C109.855 178.852 109.785 179.267 109.785 179.727C109.785 180.193 109.856 180.616 109.998 180.997C110.143 181.375 110.356 181.676 110.637 181.901C110.921 182.122 111.274 182.233 111.694 182.233ZM118.466 183.153C118.051 183.153 117.674 183.075 117.336 182.919C116.998 182.76 116.73 182.531 116.531 182.233C116.332 181.932 116.233 181.568 116.233 181.142C116.233 180.767 116.306 180.463 116.454 180.23C116.602 179.994 116.799 179.81 117.047 179.676C117.294 179.543 117.566 179.443 117.865 179.378C118.166 179.31 118.468 179.256 118.772 179.216C119.17 179.165 119.492 179.126 119.74 179.101C119.99 179.072 120.171 179.026 120.285 178.96C120.401 178.895 120.46 178.781 120.46 178.619V178.585C120.46 178.165 120.345 177.838 120.115 177.605C119.887 177.372 119.542 177.256 119.079 177.256C118.599 177.256 118.223 177.361 117.95 177.571C117.677 177.781 117.486 178.006 117.375 178.244L116.42 177.903C116.591 177.506 116.818 177.196 117.102 176.974C117.389 176.75 117.701 176.594 118.039 176.506C118.38 176.415 118.716 176.369 119.045 176.369C119.255 176.369 119.497 176.395 119.769 176.446C120.045 176.494 120.311 176.595 120.566 176.749C120.825 176.902 121.039 177.134 121.21 177.443C121.38 177.753 121.465 178.168 121.465 178.688V183H120.46V182.114H120.409C120.34 182.256 120.227 182.408 120.068 182.57C119.909 182.732 119.697 182.869 119.433 182.983C119.168 183.097 118.846 183.153 118.466 183.153ZM118.619 182.25C119.017 182.25 119.352 182.172 119.624 182.016C119.9 181.859 120.107 181.658 120.247 181.411C120.389 181.163 120.46 180.903 120.46 180.631V179.71C120.417 179.761 120.323 179.808 120.178 179.851C120.036 179.891 119.872 179.926 119.684 179.957C119.499 179.986 119.319 180.011 119.143 180.034C118.97 180.054 118.829 180.071 118.721 180.085C118.46 180.119 118.216 180.175 117.988 180.251C117.764 180.325 117.582 180.437 117.443 180.588C117.307 180.736 117.238 180.937 117.238 181.193C117.238 181.543 117.368 181.807 117.626 181.986C117.887 182.162 118.218 182.25 118.619 182.25ZM131.312 177.92L130.409 178.176C130.352 178.026 130.268 177.879 130.157 177.737C130.05 177.592 129.902 177.473 129.714 177.379C129.527 177.286 129.287 177.239 128.994 177.239C128.594 177.239 128.26 177.331 127.993 177.516C127.729 177.697 127.596 177.929 127.596 178.21C127.596 178.46 127.687 178.658 127.869 178.803C128.051 178.947 128.335 179.068 128.721 179.165L129.693 179.403C130.278 179.545 130.714 179.763 131.001 180.055C131.288 180.345 131.432 180.719 131.432 181.176C131.432 181.551 131.324 181.886 131.108 182.182C130.895 182.477 130.596 182.71 130.213 182.881C129.829 183.051 129.383 183.136 128.875 183.136C128.207 183.136 127.655 182.991 127.217 182.702C126.78 182.412 126.503 181.989 126.386 181.432L127.341 181.193C127.432 181.545 127.604 181.81 127.856 181.986C128.112 182.162 128.446 182.25 128.858 182.25C129.327 182.25 129.699 182.151 129.974 181.952C130.253 181.75 130.392 181.509 130.392 181.227C130.392 181 130.312 180.81 130.153 180.656C129.994 180.5 129.75 180.384 129.42 180.307L128.329 180.051C127.73 179.909 127.29 179.689 127.008 179.391C126.73 179.089 126.591 178.713 126.591 178.261C126.591 177.892 126.694 177.565 126.902 177.281C127.112 176.997 127.398 176.774 127.758 176.612C128.122 176.45 128.534 176.369 128.994 176.369C129.642 176.369 130.15 176.511 130.52 176.795C130.892 177.08 131.156 177.455 131.312 177.92ZM135.605 183.136C135.014 183.136 134.495 182.996 134.049 182.714C133.606 182.433 133.259 182.04 133.009 181.534C132.762 181.028 132.639 180.437 132.639 179.761C132.639 179.08 132.762 178.484 133.009 177.976C133.259 177.467 133.606 177.072 134.049 176.791C134.495 176.51 135.014 176.369 135.605 176.369C136.195 176.369 136.713 176.51 137.156 176.791C137.602 177.072 137.948 177.467 138.195 177.976C138.445 178.484 138.57 179.08 138.57 179.761C138.57 180.437 138.445 181.028 138.195 181.534C137.948 182.04 137.602 182.433 137.156 182.714C136.713 182.996 136.195 183.136 135.605 183.136ZM135.605 182.233C136.053 182.233 136.423 182.118 136.713 181.888C137.002 181.658 137.217 181.355 137.356 180.98C137.495 180.605 137.565 180.199 137.565 179.761C137.565 179.324 137.495 178.916 137.356 178.538C137.217 178.161 137.002 177.855 136.713 177.622C136.423 177.389 136.053 177.273 135.605 177.273C135.156 177.273 134.786 177.389 134.497 177.622C134.207 177.855 133.992 178.161 133.853 178.538C133.714 178.916 133.644 179.324 133.644 179.761C133.644 180.199 133.714 180.605 133.853 180.98C133.992 181.355 134.207 181.658 134.497 181.888C134.786 182.118 135.156 182.233 135.605 182.233ZM140.106 183V176.455H141.077V177.443H141.145C141.265 177.119 141.481 176.857 141.793 176.655C142.106 176.453 142.458 176.352 142.85 176.352C142.924 176.352 143.016 176.354 143.127 176.357C143.238 176.359 143.322 176.364 143.378 176.369V177.392C143.344 177.384 143.266 177.371 143.144 177.354C143.025 177.334 142.898 177.324 142.765 177.324C142.447 177.324 142.162 177.391 141.912 177.524C141.665 177.655 141.469 177.837 141.324 178.07C141.182 178.3 141.111 178.562 141.111 178.858V183H140.106ZM147.827 176.455V177.307H144.435V176.455H147.827ZM145.424 174.886H146.43V181.125C146.43 181.409 146.471 181.622 146.553 181.764C146.638 181.903 146.746 181.997 146.877 182.045C147.01 182.091 147.151 182.114 147.299 182.114C147.41 182.114 147.501 182.108 147.572 182.097C147.643 182.082 147.699 182.071 147.742 182.062L147.947 182.966C147.878 182.991 147.783 183.017 147.661 183.043C147.539 183.071 147.384 183.085 147.197 183.085C146.912 183.085 146.634 183.024 146.361 182.902C146.091 182.78 145.867 182.594 145.688 182.344C145.512 182.094 145.424 181.778 145.424 181.398V174.886ZM152.014 183.136C151.383 183.136 150.839 182.997 150.382 182.719C149.927 182.438 149.577 182.045 149.329 181.543C149.085 181.037 148.963 180.449 148.963 179.778C148.963 179.108 149.085 178.517 149.329 178.006C149.577 177.491 149.92 177.091 150.361 176.804C150.804 176.514 151.321 176.369 151.912 176.369C152.253 176.369 152.589 176.426 152.922 176.54C153.254 176.653 153.557 176.838 153.829 177.094C154.102 177.347 154.319 177.682 154.481 178.099C154.643 178.517 154.724 179.031 154.724 179.642V180.068H149.679V179.199H153.702C153.702 178.83 153.628 178.5 153.48 178.21C153.335 177.92 153.128 177.692 152.858 177.524C152.591 177.357 152.275 177.273 151.912 177.273C151.511 177.273 151.165 177.372 150.872 177.571C150.582 177.767 150.359 178.023 150.203 178.338C150.047 178.653 149.969 178.991 149.969 179.352V179.932C149.969 180.426 150.054 180.845 150.224 181.189C150.398 181.53 150.638 181.79 150.944 181.969C151.251 182.145 151.608 182.233 152.014 182.233C152.278 182.233 152.517 182.196 152.73 182.122C152.946 182.045 153.132 181.932 153.288 181.781C153.444 181.628 153.565 181.437 153.65 181.21L154.622 181.483C154.52 181.812 154.348 182.102 154.106 182.352C153.865 182.599 153.567 182.793 153.211 182.932C152.856 183.068 152.457 183.136 152.014 183.136Z" fill="white"/>
<path fill-rule="evenodd" clip-rule="evenodd" d="M130.72 74.0358C119.2 71.8091 110.401 69.6891 108.467 69.2091L108.454 69.0625L108.441 69.0225C110.467 68.5958 120.414 66.7025 131.2 67.6891C150.667 69.4758 148.414 43.2358 132.907 47.7958C138.547 33.0091 116.734 27.0758 112.987 46.4491C110.747 58.0491 108.601 66.8758 108.147 68.7292C108.107 68.7158 108.067 68.7158 108.027 68.7158L107.974 68.7292C107.561 66.7158 105.654 56.7692 106.641 45.9692C108.427 26.5025 82.1873 28.7558 86.7473 44.2624C71.9473 38.6224 66.0273 60.4224 85.4006 64.1691C96.9873 66.4224 105.814 68.5558 107.681 69.0091C107.667 69.0491 107.654 69.1025 107.667 69.1425V69.1958C105.614 69.6225 95.6806 71.5158 84.9073 70.5291C65.454 68.7425 67.694 94.9824 83.2006 90.4224C77.5606 105.209 99.374 111.129 103.121 91.7558C105.107 81.5558 107.001 73.4891 107.734 70.4358C108.041 76.4491 107.427 82.4758 106.187 88.3424C104.867 94.6491 102.881 100.809 100.801 106.942C98.6273 113.036 96.6273 119.423 95.8006 126.009C94.9073 132.596 95.054 139.382 96.3473 145.969V145.982L96.3606 146.049C96.6006 147.076 97.6273 147.716 98.654 147.476C99.694 147.223 100.334 146.196 100.094 145.169C98.654 139.036 98.254 132.676 98.8673 126.369C99.1606 123.209 99.694 120.062 100.427 116.956C101.147 113.836 102.094 110.782 103.027 107.649C104.881 101.409 106.641 95.1025 107.721 88.6358C108.601 83.4625 109.001 78.1958 108.761 72.9558C109.401 77.2225 110.174 84.5158 109.467 92.2491C107.681 111.702 133.934 109.463 129.374 93.9558C144.16 99.5958 150.094 77.7825 130.72 74.0358Z" fill="white"/>
</svg>
